<?xml version="1.0" encoding="UTF-8" standalone="no"?>
<!DOCTYPE svg PUBLIC "-//W3C//DTD SVG 1.1//EN"
 "http://www.w3.org/Graphics/SVG/1.1/DTD/svg11.dtd">
<!-- Generated by graphviz version 2.47.3 (20210619.1520)
 -->
<!-- Title: pipeline Pages: 1 -->
<svg width="100%" height="100%" xmlns="http://www.w3.org/2000/svg" xmlns:xlink="http://www.w3.org/1999/xlink">
<script type="text/ecmascript"><![CDATA[
/**
 *  SVGPan library 1.2.2
 * ======================
 *
 * Given an unique existing element with id "viewport" (or when missing, the
 * first g-element), including the library into any SVG adds the following
 * capabilities:
 *
 *  - Mouse panning
 *  - Mouse zooming (using the wheel)
 *  - Object dragging
 *
 * You can configure the behaviour of the pan/zoom/drag with the variables
 * listed in the CONFIGURATION section of this file.
 *
 * Known issues:
 *
 *  - Zooming (while panning) on Safari has still some issues
 *
 * Releases:
 *
 * 1.2.2, Tue Aug 30 17:21:56 CEST 2011, Andrea Leofreddi
 *	- Fixed viewBox on root tag (#7)
 *	- Improved zoom speed (#2)
 *
 * 1.2.1, Mon Jul  4 00:33:18 CEST 2011, Andrea Leofreddi
 *	- Fixed a regression with mouse wheel (now working on Firefox 5)
 *	- Working with viewBox attribute (#4)
 *	- Added "use strict;" and fixed resulting warnings (#5)
 *	- Added configuration variables, dragging is disabled by default (#3)
 *
 * 1.2, Sat Mar 20 08:42:50 GMT 2010, Zeng Xiaohui
 *	Fixed a bug with browser mouse handler interaction
 *
 * 1.1, Wed Feb  3 17:39:33 GMT 2010, Zeng Xiaohui
 *	Updated the zoom code to support the mouse wheel on Safari/Chrome
 *
 * 1.0, Andrea Leofreddi
 *	First release
 *
 * This code is licensed under the following BSD license:
 *
 * Copyright 2009-2017 Andrea Leofreddi <a.leofreddi@vleo.net>. All rights reserved.
 *
 * Redistribution and use in source and binary forms, with or without modification, are
 * permitted provided that the following conditions are met:
 *
 *    1. Redistributions of source code must retain the above copyright
 *       notice, this list of conditions and the following disclaimer.
 *    2. Redistributions in binary form must reproduce the above copyright
 *       notice, this list of conditions and the following disclaimer in the
 *       documentation and/or other materials provided with the distribution.
 *    3. Neither the name of the copyright holder nor the names of its
 *       contributors may be used to endorse or promote products derived from
 *       this software without specific prior written permission.
 *
 * THIS SOFTWARE IS PROVIDED BY COPYRIGHT HOLDERS AND CONTRIBUTORS ''AS IS'' AND ANY EXPRESS
 * OR IMPLIED WARRANTIES, INCLUDING, BUT NOT LIMITED TO, THE IMPLIED WARRANTIES OF MERCHANTABILITY
 * AND FITNESS FOR A PARTICULAR PURPOSE ARE DISCLAIMED. IN NO EVENT SHALL COPYRIGHT HOLDERS OR
 * CONTRIBUTORS BE LIABLE FOR ANY DIRECT, INDIRECT, INCIDENTAL, SPECIAL, EXEMPLARY, OR
 * CONSEQUENTIAL DAMAGES (INCLUDING, BUT NOT LIMITED TO, PROCUREMENT OF SUBSTITUTE GOODS OR
 * SERVICES; LOSS OF USE, DATA, OR PROFITS; OR BUSINESS INTERRUPTION) HOWEVER CAUSED AND ON
 * ANY THEORY OF LIABILITY, WHETHER IN CONTRACT, STRICT LIABILITY, OR TORT (INCLUDING
 * NEGLIGENCE OR OTHERWISE) ARISING IN ANY WAY OUT OF THE USE OF THIS SOFTWARE, EVEN IF
 * ADVISED OF THE POSSIBILITY OF SUCH DAMAGE.
 *
 * The views and conclusions contained in the software and documentation are those of the
 * authors and should not be interpreted as representing official policies, either expressed
 * or implied, of Andrea Leofreddi.
 */

"use strict";

/// CONFIGURATION
/// ====>

var enablePan = 1; // 1 or 0: enable or disable panning (default enabled)
var enableZoom = 1; // 1 or 0: enable or disable zooming (default enabled)
var enableDrag = 0; // 1 or 0: enable or disable dragging (default disabled)
var zoomScale = 0.2; // Zoom sensitivity

/// <====
/// END OF CONFIGURATION

var root = document.documentElement;

var state = 'none', svgRoot = null, stateTarget, stateOrigin, stateTf;

setupHandlers(root);

/**
 * Register handlers
 */
function setupHandlers(root){
	setAttributes(root, {
		"onmouseup" : "handleMouseUp(evt)",
		"onmousedown" : "handleMouseDown(evt)",
		"onmousemove" : "handleMouseMove(evt)",
		//"onmouseout" : "handleMouseUp(evt)", // Decomment this to stop the pan functionality when dragging out of the SVG element
	});

	if(navigator.userAgent.toLowerCase().indexOf('webkit') >= 0)
		window.addEventListener('mousewheel', handleMouseWheel, false); // Chrome/Safari
	else
		window.addEventListener('DOMMouseScroll', handleMouseWheel, false); // Others
}

/**
 * Retrieves the root element for SVG manipulation. The element is then cached into the svgRoot global variable.
 */
function getRoot(root) {
	if(svgRoot == null) {
		var r = root.getElementById("viewport") ? root.getElementById("viewport") : root.documentElement, t = r;

		while(t != root) {
			if(t.getAttribute("viewBox")) {
				setCTM(r, t.getCTM());

				t.removeAttribute("viewBox");
			}

			t = t.parentNode;
		}

		svgRoot = r;
	}

	return svgRoot;
}

/**
 * Instance an SVGPoint object with given event coordinates.
 */
function getEventPoint(evt) {
	var p = root.createSVGPoint();

	p.x = evt.clientX;
	p.y = evt.clientY;

	return p;
}

/**
 * Sets the current transform matrix of an element.
 */
function setCTM(element, matrix) {
	var s = "matrix(" + matrix.a + "," + matrix.b + "," + matrix.c + "," + matrix.d + "," + matrix.e + "," + matrix.f + ")";

	element.setAttribute("transform", s);
}

/**
 * Dumps a matrix to a string (useful for debug).
 */
function dumpMatrix(matrix) {
	var s = "[ " + matrix.a + ", " + matrix.c + ", " + matrix.e + "\n  " + matrix.b + ", " + matrix.d + ", " + matrix.f + "\n  0, 0, 1 ]";

	return s;
}

/**
 * Sets attributes of an element.
 */
function setAttributes(element, attributes){
	for (var i in attributes)
		element.setAttributeNS(null, i, attributes[i]);
}

/**
 * Handle mouse wheel event.
 */
function handleMouseWheel(evt) {
	if(!enableZoom)
		return;

	if(evt.preventDefault)
		evt.preventDefault();

	evt.returnValue = false;

	var svgDoc = evt.target.ownerDocument;

	var delta;

	if(evt.wheelDelta)
		delta = evt.wheelDelta / 360; // Chrome/Safari
	else
		delta = evt.detail / -9; // Mozilla

	var z = Math.pow(1 + zoomScale, delta);

	var g = getRoot(svgDoc);
	
	var p = getEventPoint(evt);

	p = p.matrixTransform(g.getCTM().inverse());

	// Compute new scale matrix in current mouse position
	var k = root.createSVGMatrix().translate(p.x, p.y).scale(z).translate(-p.x, -p.y);

        setCTM(g, g.getCTM().multiply(k));

	if(typeof(stateTf) == "undefined")
		stateTf = g.getCTM().inverse();

	stateTf = stateTf.multiply(k.inverse());
}

/**
 * Handle mouse move event.
 */
function handleMouseMove(evt) {
	if(evt.preventDefault)
		evt.preventDefault();

	evt.returnValue = false;

	var svgDoc = evt.target.ownerDocument;

	var g = getRoot(svgDoc);

	if(state == 'pan' && enablePan) {
		// Pan mode
		var p = getEventPoint(evt).matrixTransform(stateTf);

		setCTM(g, stateTf.inverse().translate(p.x - stateOrigin.x, p.y - stateOrigin.y));
	} else if(state == 'drag' && enableDrag) {
		// Drag mode
		var p = getEventPoint(evt).matrixTransform(g.getCTM().inverse());

		setCTM(stateTarget, root.createSVGMatrix().translate(p.x - stateOrigin.x, p.y - stateOrigin.y).multiply(g.getCTM().inverse()).multiply(stateTarget.getCTM()));

		stateOrigin = p;
	}
}

/**
 * Handle click event.
 */
function handleMouseDown(evt) {
	if(evt.preventDefault)
		evt.preventDefault();

	evt.returnValue = false;

	var svgDoc = evt.target.ownerDocument;

	var g = getRoot(svgDoc);

	if(
		evt.target.tagName == "svg"
		|| !enableDrag // Pan anyway when drag is disabled and the user clicked on an element
	) {
		// Pan mode
		state = 'pan';

		stateTf = g.getCTM().inverse();

		stateOrigin = getEventPoint(evt).matrixTransform(stateTf);
	} else {
		// Drag mode
		state = 'drag';

		stateTarget = evt.target;

		stateTf = g.getCTM().inverse();

		stateOrigin = getEventPoint(evt).matrixTransform(stateTf);
	}
}

/**
 * Handle mouse button release event.
 */
function handleMouseUp(evt) {
	if(evt.preventDefault)
		evt.preventDefault();

	evt.returnValue = false;

	var svgDoc = evt.target.ownerDocument;

	if(state == 'pan' || state == 'drag') {
		// Quit pan mode
		state = '';
	}
}
]]></script><g id="viewport" transform="scale(0.5,0.5) translate(0,0)"><g id="graph0" class="graph" transform="scale(1 1) rotate(0) translate(4 1401)">
<title>pipeline</title>
<polygon fill="white" stroke="transparent" points="-4,4 -4,-1401 1008,-1401 1008,4 -4,4"/>
<g id="clust1" class="cluster">
<title>cluster_L</title>
<polygon fill="none" stroke="black" points="8,-1220 8,-1389 420,-1389 420,-1220 8,-1220"/>
</g>
<!-- File: pipeline -->
<g id="node1" class="node">
<title>File: pipeline</title>
<g id="a_node1"><a xlink:title="pipeline">
<polygon fill="#f8f8f8" stroke="black" points="411.5,-1381 16.5,-1381 16.5,-1228 411.5,-1228 411.5,-1381"/>
<text text-anchor="start" x="24.5" y="-1364.2" font-family="Times,serif" font-size="16.00">File: pipeline</text>
<text text-anchor="start" x="24.5" y="-1346.2" font-family="Times,serif" font-size="16.00">Build ID: f5b549d19b3a22503c2410c78834ba394de7cfa6</text>
<text text-anchor="start" x="24.5" y="-1328.2" font-family="Times,serif" font-size="16.00">Type: cpu</text>
<text text-anchor="start" x="24.5" y="-1310.2" font-family="Times,serif" font-size="16.00">Time: Nov 22, 2022 at 9:15am (CST)</text>
<text text-anchor="start" x="24.5" y="-1292.2" font-family="Times,serif" font-size="16.00">Duration: 30.10s, Total samples = 1.18s ( 3.92%)</text>
<text text-anchor="start" x="24.5" y="-1274.2" font-family="Times,serif" font-size="16.00">Showing nodes accounting for 1.18s, 100% of 1.18s total</text>
<text text-anchor="start" x="24.5" y="-1237.2" font-family="Times,serif" font-size="16.00">See https://git.io/JfYMW for how to read the graph</text>
</a>
</g>
</g>
<!-- N1 -->
<g id="node1" class="node">
<title>N1</title>
<g id="a_node1"><a xlink:title="runtime.findrunnable (1.18s)">
<polygon fill="#edd5d5" stroke="#b20000" points="513.5,-1003 420.5,-1003 420.5,-943 513.5,-943 513.5,-1003"/>
<text text-anchor="middle" x="467" y="-989.4" font-family="Times,serif" font-size="12.00">runtime</text>
<text text-anchor="middle" x="467" y="-976.4" font-family="Times,serif" font-size="12.00">findrunnable</text>
<text text-anchor="middle" x="467" y="-963.4" font-family="Times,serif" font-size="12.00">0.04s (3.39%)</text>
<text text-anchor="middle" x="467" y="-950.4" font-family="Times,serif" font-size="12.00">of 1.18s (100%)</text>
</a>
</g>
</g>
<!-- N6 -->
<g id="node6" class="node">
<title>N6</title>
<g id="a_node6"><a xlink:title="runtime.checkTimers (0.93s)">
<polygon fill="#edd7d5" stroke="#b20c00" points="511.5,-875 422.5,-875 422.5,-823 511.5,-823 511.5,-875"/>
<text text-anchor="middle" x="467" y="-863" font-family="Times,serif" font-size="10.00">runtime</text>
<text text-anchor="middle" x="467" y="-852" font-family="Times,serif" font-size="10.00">checkTimers</text>
<text text-anchor="middle" x="467" y="-841" font-family="Times,serif" font-size="10.00">0.01s (0.85%)</text>
<text text-anchor="middle" x="467" y="-830" font-family="Times,serif" font-size="10.00">of 0.93s (78.81%)</text>
</a>
</g>
</g>
<!-- N1&#45;&gt;N6 -->
<g id="edge4" class="edge">
<title>N1&#45;&gt;N6</title>
<g id="a_edge4"><a xlink:title="runtime.findrunnable &#45;&gt; runtime.checkTimers (0.93s)">
<path fill="none" stroke="#b20c00" stroke-width="4" d="M467,-942.78C467,-925.57 467,-903.68 467,-885.49"/>
<polygon fill="#b20c00" stroke="#b20c00" stroke-width="4" points="470.5,-885.27 467,-875.27 463.5,-885.27 470.5,-885.27"/>
</a>
</g>
<g id="a_edge4&#45;label"><a xlink:title="runtime.findrunnable &#45;&gt; runtime.checkTimers (0.93s)">
<text text-anchor="middle" x="484" y="-906.3" font-family="Times,serif" font-size="14.00"> 0.93s</text>
</a>
</g>
</g>
<!-- N7 -->
<g id="node7" class="node">
<title>N7</title>
<g id="a_node7"><a xlink:title="runtime.nanotime (0.07s)">
<polygon fill="#edeae6" stroke="#b29b7d" points="637.5,-159 532.5,-159 532.5,-95 637.5,-95 637.5,-159"/>
<text text-anchor="middle" x="585" y="-144.6" font-family="Times,serif" font-size="13.00">runtime</text>
<text text-anchor="middle" x="585" y="-130.6" font-family="Times,serif" font-size="13.00">nanotime</text>
<text text-anchor="middle" x="585" y="-116.6" font-family="Times,serif" font-size="13.00">0.05s (4.24%)</text>
<text text-anchor="middle" x="585" y="-102.6" font-family="Times,serif" font-size="13.00">of 0.07s (5.93%)</text>
</a>
</g>
</g>
<!-- N1&#45;&gt;N7 -->
<g id="edge16" class="edge">
<title>N1&#45;&gt;N7</title>
<g id="a_edge16"><a xlink:title="runtime.findrunnable &#45;&gt; runtime.nanotime (0.03s)">
<path fill="none" stroke="#b2aa9b" d="M493.23,-942.8C497.54,-937.14 501.67,-931.07 505,-925 515.8,-905.27 513.93,-898.35 521,-877 587.39,-676.65 657,-633.06 657,-422 657,-422 657,-422 657,-262 657,-227.12 637.84,-192.57 619.28,-167.28"/>
<polygon fill="#b2aa9b" stroke="#b2aa9b" points="621.88,-164.92 613.04,-159.08 616.31,-169.16 621.88,-164.92"/>
</a>
</g>
<g id="a_edge16&#45;label"><a xlink:title="runtime.findrunnable &#45;&gt; runtime.nanotime (0.03s)">
<text text-anchor="middle" x="665" y="-576.8" font-family="Times,serif" font-size="14.00"> 0.03s</text>
<text text-anchor="middle" x="665" y="-561.8" font-family="Times,serif" font-size="14.00"> (inline)</text>
</a>
</g>
</g>
<!-- N11 -->
<g id="node11" class="node">
<title>N11</title>
<g id="a_node11"><a xlink:title="runtime.netpoll (0.15s)">
<polygon fill="#ede5de" stroke="#b27541" points="701.5,-877 606.5,-877 606.5,-821 701.5,-821 701.5,-877"/>
<text text-anchor="middle" x="654" y="-864.2" font-family="Times,serif" font-size="11.00">runtime</text>
<text text-anchor="middle" x="654" y="-852.2" font-family="Times,serif" font-size="11.00">netpoll</text>
<text text-anchor="middle" x="654" y="-840.2" font-family="Times,serif" font-size="11.00">0.02s (1.69%)</text>
<text text-anchor="middle" x="654" y="-828.2" font-family="Times,serif" font-size="11.00">of 0.15s (12.71%)</text>
</a>
</g>
</g>
<!-- N1&#45;&gt;N11 -->
<g id="edge9" class="edge">
<title>N1&#45;&gt;N11</title>
<g id="a_edge9"><a xlink:title="runtime.findrunnable &#45;&gt; runtime.netpoll (0.15s)">
<path fill="none" stroke="#b27541" d="M513.76,-960.72C538.54,-953.25 568.6,-941.7 592,-925 606.8,-914.44 620.12,-899.49 630.58,-885.72"/>
<polygon fill="#b27541" stroke="#b27541" points="633.63,-887.48 636.72,-877.35 627.99,-883.35 633.63,-887.48"/>
</a>
</g>
<g id="a_edge9&#45;label"><a xlink:title="runtime.findrunnable &#45;&gt; runtime.netpoll (0.15s)">
<text text-anchor="middle" x="639" y="-906.3" font-family="Times,serif" font-size="14.00"> 0.15s</text>
</a>
</g>
</g>
<!-- N17 -->
<g id="node17" class="node">
<title>N17</title>
<g id="a_node17"><a xlink:title="runtime.(*randomEnum).done (0.01s)">
<polygon fill="#edecec" stroke="#b2b0aa" points="802.5,-875 719.5,-875 719.5,-823 802.5,-823 802.5,-875"/>
<text text-anchor="middle" x="761" y="-863" font-family="Times,serif" font-size="10.00">runtime</text>
<text text-anchor="middle" x="761" y="-852" font-family="Times,serif" font-size="10.00">(*randomEnum)</text>
<text text-anchor="middle" x="761" y="-841" font-family="Times,serif" font-size="10.00">done</text>
<text text-anchor="middle" x="761" y="-830" font-family="Times,serif" font-size="10.00">0.01s (0.85%)</text>
</a>
</g>
</g>
<!-- N1&#45;&gt;N17 -->
<g id="edge25" class="edge">
<title>N1&#45;&gt;N17</title>
<g id="a_edge25"><a xlink:title="runtime.findrunnable &#45;&gt; runtime.(*randomEnum).done (0.01s)">
<path fill="none" stroke="#b2b0aa" d="M513.58,-966C553.79,-959.58 612.7,-947.2 660,-925 683.49,-913.98 706.93,-897.03 725.31,-882.04"/>
<polygon fill="#b2b0aa" stroke="#b2b0aa" points="727.93,-884.4 733.38,-875.31 723.45,-879.02 727.93,-884.4"/>
</a>
</g>
<g id="a_edge25&#45;label"><a xlink:title="runtime.findrunnable &#45;&gt; runtime.(*randomEnum).done (0.01s)">
<text text-anchor="middle" x="728" y="-913.8" font-family="Times,serif" font-size="14.00"> 0.01s</text>
<text text-anchor="middle" x="728" y="-898.8" font-family="Times,serif" font-size="14.00"> (inline)</text>
</a>
</g>
</g>
<!-- N18 -->
<g id="node18" class="node">
<title>N18</title>
<g id="a_node18"><a xlink:title="runtime.(*randomEnum).next (0.01s)">
<polygon fill="#edecec" stroke="#b2b0aa" points="903.5,-875 820.5,-875 820.5,-823 903.5,-823 903.5,-875"/>
<text text-anchor="middle" x="862" y="-863" font-family="Times,serif" font-size="10.00">runtime</text>
<text text-anchor="middle" x="862" y="-852" font-family="Times,serif" font-size="10.00">(*randomEnum)</text>
<text text-anchor="middle" x="862" y="-841" font-family="Times,serif" font-size="10.00">next</text>
<text text-anchor="middle" x="862" y="-830" font-family="Times,serif" font-size="10.00">0.01s (0.85%)</text>
</a>
</g>
</g>
<!-- N1&#45;&gt;N18 -->
<g id="edge26" class="edge">
<title>N1&#45;&gt;N18</title>
<g id="a_edge26"><a xlink:title="runtime.findrunnable &#45;&gt; runtime.(*randomEnum).next (0.01s)">
<path fill="none" stroke="#b2b0aa" d="M513.68,-970.65C571.91,-967.57 673.62,-957.54 754,-925 779.85,-914.54 805.62,-896.98 825.51,-881.48"/>
<polygon fill="#b2b0aa" stroke="#b2b0aa" points="827.73,-884.18 833.37,-875.22 823.37,-878.71 827.73,-884.18"/>
</a>
</g>
<g id="a_edge26&#45;label"><a xlink:title="runtime.findrunnable &#45;&gt; runtime.(*randomEnum).next (0.01s)">
<text text-anchor="middle" x="829" y="-913.8" font-family="Times,serif" font-size="14.00"> 0.01s</text>
<text text-anchor="middle" x="829" y="-898.8" font-family="Times,serif" font-size="14.00"> (inline)</text>
</a>
</g>
</g>
<!-- N23 -->
<g id="node23" class="node">
<title>N23</title>
<g id="a_node23"><a xlink:title="runtime.lock (0.01s)">
<polygon fill="#edecec" stroke="#b2b0aa" points="998.5,-867 921.5,-867 921.5,-831 998.5,-831 998.5,-867"/>
<text text-anchor="middle" x="960" y="-856.1" font-family="Times,serif" font-size="8.00">runtime</text>
<text text-anchor="middle" x="960" y="-847.1" font-family="Times,serif" font-size="8.00">lock</text>
<text text-anchor="middle" x="960" y="-838.1" font-family="Times,serif" font-size="8.00">0 of 0.01s (0.85%)</text>
</a>
</g>
</g>
<!-- N1&#45;&gt;N23 -->
<g id="edge27" class="edge">
<title>N1&#45;&gt;N23</title>
<g id="a_edge27"><a xlink:title="runtime.findrunnable &#45;&gt; runtime.lock (0.01s)">
<path fill="none" stroke="#b2b0aa" d="M513.8,-969.24C602.95,-963.49 793.72,-948.79 855,-925 884.92,-913.38 914.23,-891.28 934.25,-874.07"/>
<polygon fill="#b2b0aa" stroke="#b2b0aa" points="936.78,-876.5 941.97,-867.27 932.15,-871.25 936.78,-876.5"/>
</a>
</g>
<g id="a_edge27&#45;label"><a xlink:title="runtime.findrunnable &#45;&gt; runtime.lock (0.01s)">
<text text-anchor="middle" x="928" y="-913.8" font-family="Times,serif" font-size="14.00"> 0.01s</text>
<text text-anchor="middle" x="928" y="-898.8" font-family="Times,serif" font-size="14.00"> (inline)</text>
</a>
</g>
</g>
<!-- N2 -->
<g id="node2" class="node">
<title>N2</title>
<g id="a_node2"><a xlink:title="runtime.mcall (1.18s)">
<polygon fill="#edd5d5" stroke="#b20000" points="504,-1322.5 430,-1322.5 430,-1286.5 504,-1286.5 504,-1322.5"/>
<text text-anchor="middle" x="467" y="-1311.6" font-family="Times,serif" font-size="8.00">runtime</text>
<text text-anchor="middle" x="467" y="-1302.6" font-family="Times,serif" font-size="8.00">mcall</text>
<text text-anchor="middle" x="467" y="-1293.6" font-family="Times,serif" font-size="8.00">0 of 1.18s (100%)</text>
</a>
</g>
</g>
<!-- N21 -->
<g id="node21" class="node">
<title>N21</title>
<g id="a_node21"><a xlink:title="runtime.exitsyscall0 (0.01s)">
<polygon fill="#edecec" stroke="#b2b0aa" points="313.5,-1177 236.5,-1177 236.5,-1141 313.5,-1141 313.5,-1177"/>
<text text-anchor="middle" x="275" y="-1166.1" font-family="Times,serif" font-size="8.00">runtime</text>
<text text-anchor="middle" x="275" y="-1157.1" font-family="Times,serif" font-size="8.00">exitsyscall0</text>
<text text-anchor="middle" x="275" y="-1148.1" font-family="Times,serif" font-size="8.00">0 of 0.01s (0.85%)</text>
</a>
</g>
</g>
<!-- N2&#45;&gt;N21 -->
<g id="edge30" class="edge">
<title>N2&#45;&gt;N21</title>
<g id="a_edge30"><a xlink:title="runtime.mcall &#45;&gt; runtime.exitsyscall0 (0.01s)">
<path fill="none" stroke="#b2b0aa" d="M463.08,-1286.43C457.7,-1267.1 446.09,-1236.21 424,-1220 402.91,-1204.53 390.69,-1218.64 366,-1210 346.33,-1203.12 325.87,-1192.26 309.35,-1182.41"/>
<polygon fill="#b2b0aa" stroke="#b2b0aa" points="310.96,-1179.3 300.6,-1177.08 307.31,-1185.27 310.96,-1179.3"/>
</a>
</g>
<g id="a_edge30&#45;label"><a xlink:title="runtime.mcall &#45;&gt; runtime.exitsyscall0 (0.01s)">
<text text-anchor="middle" x="383" y="-1198.8" font-family="Times,serif" font-size="14.00"> 0.01s</text>
</a>
</g>
</g>
<!-- N22 -->
<g id="node22" class="node">
<title>N22</title>
<g id="a_node22"><a xlink:title="runtime.goexit0 (0.01s)">
<polygon fill="#edecec" stroke="#b2b0aa" points="408.5,-1177 331.5,-1177 331.5,-1141 408.5,-1141 408.5,-1177"/>
<text text-anchor="middle" x="370" y="-1166.1" font-family="Times,serif" font-size="8.00">runtime</text>
<text text-anchor="middle" x="370" y="-1157.1" font-family="Times,serif" font-size="8.00">goexit0</text>
<text text-anchor="middle" x="370" y="-1148.1" font-family="Times,serif" font-size="8.00">0 of 0.01s (0.85%)</text>
</a>
</g>
</g>
<!-- N2&#45;&gt;N22 -->
<g id="edge31" class="edge">
<title>N2&#45;&gt;N22</title>
<g id="a_edge31"><a xlink:title="runtime.mcall &#45;&gt; runtime.goexit0 (0.01s)">
<path fill="none" stroke="#b2b0aa" d="M459.79,-1286.46C452.08,-1269.06 438.91,-1241.6 424,-1220 415.44,-1207.59 404.53,-1195.02 394.77,-1184.61"/>
<polygon fill="#b2b0aa" stroke="#b2b0aa" points="397.03,-1181.91 387.58,-1177.11 391.97,-1186.75 397.03,-1181.91"/>
</a>
</g>
<g id="a_edge31&#45;label"><a xlink:title="runtime.mcall &#45;&gt; runtime.goexit0 (0.01s)">
<text text-anchor="middle" x="433" y="-1198.8" font-family="Times,serif" font-size="14.00"> 0.01s</text>
</a>
</g>
</g>
<!-- N24 -->
<g id="node24" class="node">
<title>N24</title>
<g id="a_node24"><a xlink:title="runtime.park_m (1.16s)">
<polygon fill="#edd5d5" stroke="#b20000" points="507,-1177 427,-1177 427,-1141 507,-1141 507,-1177"/>
<text text-anchor="middle" x="467" y="-1166.1" font-family="Times,serif" font-size="8.00">runtime</text>
<text text-anchor="middle" x="467" y="-1157.1" font-family="Times,serif" font-size="8.00">park_m</text>
<text text-anchor="middle" x="467" y="-1148.1" font-family="Times,serif" font-size="8.00">0 of 1.16s (98.31%)</text>
</a>
</g>
</g>
<!-- N2&#45;&gt;N24 -->
<g id="edge2" class="edge">
<title>N2&#45;&gt;N24</title>
<g id="a_edge2"><a xlink:title="runtime.mcall &#45;&gt; runtime.park_m (1.16s)">
<path fill="none" stroke="#b20000" stroke-width="5" d="M467,-1286.48C467,-1261.99 467,-1216.56 467,-1187.33"/>
<polygon fill="#b20000" stroke="#b20000" stroke-width="5" points="471.38,-1187 467,-1177 462.63,-1187 471.38,-1187"/>
</a>
</g>
<g id="a_edge2&#45;label"><a xlink:title="runtime.mcall &#45;&gt; runtime.park_m (1.16s)">
<text text-anchor="middle" x="484" y="-1198.8" font-family="Times,serif" font-size="14.00"> 1.16s</text>
</a>
</g>
</g>
<!-- N3 -->
<g id="node3" class="node">
<title>N3</title>
<g id="a_node3"><a xlink:title="runtime.siftdownTimer (0.66s)">
<polygon fill="#edd9d5" stroke="#b21c00" points="549,-540 385,-540 385,-454 549,-454 549,-540"/>
<text text-anchor="middle" x="467" y="-516.8" font-family="Times,serif" font-size="24.00">runtime</text>
<text text-anchor="middle" x="467" y="-490.8" font-family="Times,serif" font-size="24.00">siftdownTimer</text>
<text text-anchor="middle" x="467" y="-464.8" font-family="Times,serif" font-size="24.00">0.66s (55.93%)</text>
</a>
</g>
</g>
<!-- N4 -->
<g id="node4" class="node">
<title>N4</title>
<g id="a_node4"><a xlink:title="runtime.runOneTimer (0.89s)">
<polygon fill="#edd7d5" stroke="#b20e00" points="507,-642 427,-642 427,-606 507,-606 507,-642"/>
<text text-anchor="middle" x="467" y="-631.1" font-family="Times,serif" font-size="8.00">runtime</text>
<text text-anchor="middle" x="467" y="-622.1" font-family="Times,serif" font-size="8.00">runOneTimer</text>
<text text-anchor="middle" x="467" y="-613.1" font-family="Times,serif" font-size="8.00">0 of 0.89s (75.42%)</text>
</a>
</g>
</g>
<!-- N4&#45;&gt;N3 -->
<g id="edge7" class="edge">
<title>N4&#45;&gt;N3</title>
<g id="a_edge7"><a xlink:title="runtime.runOneTimer &#45;&gt; runtime.siftdownTimer (0.66s)">
<path fill="none" stroke="#b21c00" stroke-width="3" d="M467,-605.88C467,-591.53 467,-570.26 467,-550.39"/>
<polygon fill="#b21c00" stroke="#b21c00" stroke-width="3" points="470.5,-550.17 467,-540.17 463.5,-550.17 470.5,-550.17"/>
</a>
</g>
<g id="a_edge7&#45;label"><a xlink:title="runtime.runOneTimer &#45;&gt; runtime.siftdownTimer (0.66s)">
<text text-anchor="middle" x="484" y="-569.3" font-family="Times,serif" font-size="14.00"> 0.66s</text>
</a>
</g>
</g>
<!-- N8 -->
<g id="node8" class="node">
<title>N8</title>
<g id="a_node8"><a xlink:title="time.sendTime (0.20s)">
<polygon fill="#ede1d9" stroke="#b2591b" points="271,-515 191,-515 191,-479 271,-479 271,-515"/>
<text text-anchor="middle" x="231" y="-504.1" font-family="Times,serif" font-size="8.00">time</text>
<text text-anchor="middle" x="231" y="-495.1" font-family="Times,serif" font-size="8.00">sendTime</text>
<text text-anchor="middle" x="231" y="-486.1" font-family="Times,serif" font-size="8.00">0 of 0.20s (16.95%)</text>
</a>
</g>
</g>
<!-- N4&#45;&gt;N8 -->
<g id="edge8" class="edge">
<title>N4&#45;&gt;N8</title>
<g id="a_edge8"><a xlink:title="runtime.runOneTimer &#45;&gt; time.sendTime (0.20s)">
<path fill="none" stroke="#b2591b" d="M426.76,-614.45C403.38,-608.67 373.75,-599.9 349,-588 315.33,-571.82 309.55,-562.85 280,-540 272.74,-534.38 265.1,-528.06 258.08,-522.06"/>
<polygon fill="#b2591b" stroke="#b2591b" points="260.03,-519.12 250.18,-515.22 255.45,-524.41 260.03,-519.12"/>
</a>
</g>
<g id="a_edge8&#45;label"><a xlink:title="runtime.runOneTimer &#45;&gt; time.sendTime (0.20s)">
<text text-anchor="middle" x="366" y="-569.3" font-family="Times,serif" font-size="14.00"> 0.20s</text>
</a>
</g>
</g>
<!-- N26 -->
<g id="node26" class="node">
<title>N26</title>
<g id="a_node26"><a xlink:title="runtime.unlock (0.03s)">
<polygon fill="#edecea" stroke="#b2aa9b" points="366.5,-515 289.5,-515 289.5,-479 366.5,-479 366.5,-515"/>
<text text-anchor="middle" x="328" y="-504.1" font-family="Times,serif" font-size="8.00">runtime</text>
<text text-anchor="middle" x="328" y="-495.1" font-family="Times,serif" font-size="8.00">unlock</text>
<text text-anchor="middle" x="328" y="-486.1" font-family="Times,serif" font-size="8.00">0 of 0.03s (2.54%)</text>
</a>
</g>
</g>
<!-- N4&#45;&gt;N26 -->
<g id="edge17" class="edge">
<title>N4&#45;&gt;N26</title>
<g id="a_edge17"><a xlink:title="runtime.runOneTimer &#45;&gt; runtime.unlock (0.03s)">
<path fill="none" stroke="#b2aa9b" d="M442.04,-605.88C434.46,-600.4 426.23,-594.15 419,-588 394.57,-567.21 368.75,-541.25 350.88,-522.55"/>
<polygon fill="#b2aa9b" stroke="#b2aa9b" points="353.16,-519.87 343.74,-515.03 348.08,-524.69 353.16,-519.87"/>
</a>
</g>
<g id="a_edge17&#45;label"><a xlink:title="runtime.runOneTimer &#45;&gt; runtime.unlock (0.03s)">
<text text-anchor="middle" x="441" y="-576.8" font-family="Times,serif" font-size="14.00"> 0.03s</text>
<text text-anchor="middle" x="441" y="-561.8" font-family="Times,serif" font-size="14.00"> (inline)</text>
</a>
</g>
</g>
<!-- N5 -->
<g id="node5" class="node">
<title>N5</title>
<g id="a_node5"><a xlink:title="runtime.epollwait (0.13s)">
<polygon fill="#ede6e0" stroke="#b27f50" points="722,-755 606,-755 606,-693 722,-693 722,-755"/>
<text text-anchor="middle" x="664" y="-738.2" font-family="Times,serif" font-size="16.00">runtime</text>
<text text-anchor="middle" x="664" y="-720.2" font-family="Times,serif" font-size="16.00">epollwait</text>
<text text-anchor="middle" x="664" y="-702.2" font-family="Times,serif" font-size="16.00">0.13s (11.02%)</text>
</a>
</g>
</g>
<!-- N6&#45;&gt;N7 -->
<g id="edge20" class="edge">
<title>N6&#45;&gt;N7</title>
<g id="a_edge20"><a xlink:title="runtime.checkTimers &#45;&gt; runtime.nanotime (0.02s)">
<path fill="none" stroke="#b2aea3" d="M491.3,-822.59C496.3,-816.5 501.2,-809.78 505,-803 516.01,-783.39 515.31,-776.76 521,-755 559.13,-609.2 585,-572.71 585,-422 585,-422 585,-422 585,-262 585,-230.89 585,-195.71 585,-169.2"/>
<polygon fill="#b2aea3" stroke="#b2aea3" points="588.5,-169.14 585,-159.14 581.5,-169.14 588.5,-169.14"/>
</a>
</g>
<g id="a_edge20&#45;label"><a xlink:title="runtime.checkTimers &#45;&gt; runtime.nanotime (0.02s)">
<text text-anchor="middle" x="606" y="-500.8" font-family="Times,serif" font-size="14.00"> 0.02s</text>
<text text-anchor="middle" x="606" y="-485.8" font-family="Times,serif" font-size="14.00"> (inline)</text>
</a>
</g>
</g>
<!-- N13 -->
<g id="node13" class="node">
<title>N13</title>
<g id="a_node13"><a xlink:title="runtime.runtimer (0.90s)">
<polygon fill="#edd7d5" stroke="#b20d00" points="511.5,-750 422.5,-750 422.5,-698 511.5,-698 511.5,-750"/>
<text text-anchor="middle" x="467" y="-738" font-family="Times,serif" font-size="10.00">runtime</text>
<text text-anchor="middle" x="467" y="-727" font-family="Times,serif" font-size="10.00">runtimer</text>
<text text-anchor="middle" x="467" y="-716" font-family="Times,serif" font-size="10.00">0.01s (0.85%)</text>
<text text-anchor="middle" x="467" y="-705" font-family="Times,serif" font-size="10.00">of 0.90s (76.27%)</text>
</a>
</g>
</g>
<!-- N6&#45;&gt;N13 -->
<g id="edge5" class="edge">
<title>N6&#45;&gt;N13</title>
<g id="a_edge5"><a xlink:title="runtime.checkTimers &#45;&gt; runtime.runtimer (0.90s)">
<path fill="none" stroke="#b20d00" stroke-width="4" d="M467,-822.81C467,-804.82 467,-780.37 467,-760.41"/>
<polygon fill="#b20d00" stroke="#b20d00" stroke-width="4" points="470.5,-760.15 467,-750.15 463.5,-760.15 470.5,-760.15"/>
</a>
</g>
<g id="a_edge5&#45;label"><a xlink:title="runtime.checkTimers &#45;&gt; runtime.runtimer (0.90s)">
<text text-anchor="middle" x="484" y="-784.3" font-family="Times,serif" font-size="14.00"> 0.90s</text>
</a>
</g>
</g>
<!-- N16 -->
<g id="node16" class="node">
<title>N16</title>
<g id="a_node16"><a xlink:title="runtime.nanotime1 (0.02s)">
<polygon fill="#edeceb" stroke="#b2aea3" points="624,-44 546,-44 546,0 624,0 624,-44"/>
<text text-anchor="middle" x="585" y="-31.2" font-family="Times,serif" font-size="11.00">runtime</text>
<text text-anchor="middle" x="585" y="-19.2" font-family="Times,serif" font-size="11.00">nanotime1</text>
<text text-anchor="middle" x="585" y="-7.2" font-family="Times,serif" font-size="11.00">0.02s (1.69%)</text>
</a>
</g>
</g>
<!-- N7&#45;&gt;N16 -->
<g id="edge21" class="edge">
<title>N7&#45;&gt;N16</title>
<g id="a_edge21"><a xlink:title="runtime.nanotime &#45;&gt; runtime.nanotime1 (0.02s)">
<path fill="none" stroke="#b2aea3" d="M585,-94.82C585,-82.05 585,-67.3 585,-54.5"/>
<polygon fill="#b2aea3" stroke="#b2aea3" points="588.5,-54.29 585,-44.29 581.5,-54.29 588.5,-54.29"/>
</a>
</g>
<g id="a_edge21&#45;label"><a xlink:title="runtime.nanotime &#45;&gt; runtime.nanotime1 (0.02s)">
<text text-anchor="middle" x="602" y="-65.8" font-family="Times,serif" font-size="14.00"> 0.02s</text>
</a>
</g>
</g>
<!-- N25 -->
<g id="node25" class="node">
<title>N25</title>
<g id="a_node25"><a xlink:title="runtime.selectnbsend (0.13s)">
<polygon fill="#ede6e0" stroke="#b27f50" points="271,-388 191,-388 191,-352 271,-352 271,-388"/>
<text text-anchor="middle" x="231" y="-377.1" font-family="Times,serif" font-size="8.00">runtime</text>
<text text-anchor="middle" x="231" y="-368.1" font-family="Times,serif" font-size="8.00">selectnbsend</text>
<text text-anchor="middle" x="231" y="-359.1" font-family="Times,serif" font-size="8.00">0 of 0.13s (11.02%)</text>
</a>
</g>
</g>
<!-- N8&#45;&gt;N25 -->
<g id="edge12" class="edge">
<title>N8&#45;&gt;N25</title>
<g id="a_edge12"><a xlink:title="time.sendTime &#45;&gt; runtime.selectnbsend (0.13s)">
<path fill="none" stroke="#b27f50" d="M231,-478.88C231,-458.15 231,-422.95 231,-398.42"/>
<polygon fill="#b27f50" stroke="#b27f50" points="234.5,-398.31 231,-388.31 227.5,-398.31 234.5,-398.31"/>
</a>
</g>
<g id="a_edge12&#45;label"><a xlink:title="time.sendTime &#45;&gt; runtime.selectnbsend (0.13s)">
<text text-anchor="middle" x="248" y="-417.3" font-family="Times,serif" font-size="14.00"> 0.13s</text>
</a>
</g>
</g>
<!-- N28 -->
<g id="node28" class="node">
<title>N28</title>
<g id="a_node28"><a xlink:title="time.Now (0.07s)">
<polygon fill="#edeae6" stroke="#b29b7d" points="372.5,-388 295.5,-388 295.5,-352 372.5,-352 372.5,-388"/>
<text text-anchor="middle" x="334" y="-377.1" font-family="Times,serif" font-size="8.00">time</text>
<text text-anchor="middle" x="334" y="-368.1" font-family="Times,serif" font-size="8.00">Now</text>
<text text-anchor="middle" x="334" y="-359.1" font-family="Times,serif" font-size="8.00">0 of 0.07s (5.93%)</text>
</a>
</g>
</g>
<!-- N8&#45;&gt;N28 -->
<g id="edge14" class="edge">
<title>N8&#45;&gt;N28</title>
<g id="a_edge14"><a xlink:title="time.sendTime &#45;&gt; time.Now (0.07s)">
<path fill="none" stroke="#b29b7d" d="M245.11,-478.88C262.73,-457.5 293.02,-420.73 313.28,-396.14"/>
<polygon fill="#b29b7d" stroke="#b29b7d" points="316.08,-398.26 319.73,-388.31 310.67,-393.8 316.08,-398.26"/>
</a>
</g>
<g id="a_edge14&#45;label"><a xlink:title="time.sendTime &#45;&gt; time.Now (0.07s)">
<text text-anchor="middle" x="321" y="-417.3" font-family="Times,serif" font-size="14.00"> 0.07s</text>
</a>
</g>
</g>
<!-- N9 -->
<g id="node9" class="node">
<title>N9</title>
<g id="a_node9"><a xlink:title="runtime.chansend (0.13s)">
<polygon fill="#ede6e0" stroke="#b27f50" points="294,-301 168,-301 168,-225 294,-225 294,-301"/>
<text text-anchor="middle" x="231" y="-285" font-family="Times,serif" font-size="15.00">runtime</text>
<text text-anchor="middle" x="231" y="-268" font-family="Times,serif" font-size="15.00">chansend</text>
<text text-anchor="middle" x="231" y="-251" font-family="Times,serif" font-size="15.00">0.12s (10.17%)</text>
<text text-anchor="middle" x="231" y="-234" font-family="Times,serif" font-size="15.00">of 0.13s (11.02%)</text>
</a>
</g>
</g>
<!-- N19 -->
<g id="node19" class="node">
<title>N19</title>
<g id="a_node19"><a xlink:title="runtime.full (0.01s)">
<polygon fill="#edecec" stroke="#b2b0aa" points="267.5,-147.5 194.5,-147.5 194.5,-106.5 267.5,-106.5 267.5,-147.5"/>
<text text-anchor="middle" x="231" y="-135.5" font-family="Times,serif" font-size="10.00">runtime</text>
<text text-anchor="middle" x="231" y="-124.5" font-family="Times,serif" font-size="10.00">full</text>
<text text-anchor="middle" x="231" y="-113.5" font-family="Times,serif" font-size="10.00">0.01s (0.85%)</text>
</a>
</g>
</g>
<!-- N9&#45;&gt;N19 -->
<g id="edge23" class="edge">
<title>N9&#45;&gt;N19</title>
<g id="a_edge23"><a xlink:title="runtime.chansend &#45;&gt; runtime.full (0.01s)">
<path fill="none" stroke="#b2b0aa" d="M231,-224.67C231,-203.63 231,-177.7 231,-157.99"/>
<polygon fill="#b2b0aa" stroke="#b2b0aa" points="234.5,-157.76 231,-147.76 227.5,-157.76 234.5,-157.76"/>
</a>
</g>
<g id="a_edge23&#45;label"><a xlink:title="runtime.chansend &#45;&gt; runtime.full (0.01s)">
<text text-anchor="middle" x="253" y="-195.8" font-family="Times,serif" font-size="14.00"> 0.01s</text>
<text text-anchor="middle" x="253" y="-180.8" font-family="Times,serif" font-size="14.00"> (inline)</text>
</a>
</g>
</g>
<!-- N10 -->
<g id="node10" class="node">
<title>N10</title>
<g id="a_node10"><a xlink:title="runtime.schedule (1.18s)">
<polygon fill="#edd5d5" stroke="#b20000" points="504,-1090 430,-1090 430,-1054 504,-1054 504,-1090"/>
<text text-anchor="middle" x="467" y="-1079.1" font-family="Times,serif" font-size="8.00">runtime</text>
<text text-anchor="middle" x="467" y="-1070.1" font-family="Times,serif" font-size="8.00">schedule</text>
<text text-anchor="middle" x="467" y="-1061.1" font-family="Times,serif" font-size="8.00">0 of 1.18s (100%)</text>
</a>
</g>
</g>
<!-- N10&#45;&gt;N1 -->
<g id="edge1" class="edge">
<title>N10&#45;&gt;N1</title>
<g id="a_edge1"><a xlink:title="runtime.schedule &#45;&gt; runtime.findrunnable (1.18s)">
<path fill="none" stroke="#b20000" stroke-width="6" d="M467,-1053.66C467,-1042.54 467,-1027.64 467,-1013.73"/>
<polygon fill="#b20000" stroke="#b20000" stroke-width="6" points="472.25,-1013.37 467,-1003.37 461.75,-1013.37 472.25,-1013.37"/>
</a>
</g>
<g id="a_edge1&#45;label"><a xlink:title="runtime.schedule &#45;&gt; runtime.findrunnable (1.18s)">
<text text-anchor="middle" x="484" y="-1024.8" font-family="Times,serif" font-size="14.00"> 1.18s</text>
</a>
</g>
</g>
<!-- N11&#45;&gt;N5 -->
<g id="edge10" class="edge">
<title>N11&#45;&gt;N5</title>
<g id="a_edge10"><a xlink:title="runtime.netpoll &#45;&gt; runtime.epollwait (0.13s)">
<path fill="none" stroke="#b27f50" d="M656.22,-820.7C657.54,-804.42 659.25,-783.44 660.73,-765.27"/>
<polygon fill="#b27f50" stroke="#b27f50" points="664.22,-765.49 661.54,-755.24 657.24,-764.93 664.22,-765.49"/>
</a>
</g>
<g id="a_edge10&#45;label"><a xlink:title="runtime.netpoll &#45;&gt; runtime.epollwait (0.13s)">
<text text-anchor="middle" x="676" y="-784.3" font-family="Times,serif" font-size="14.00"> 0.13s</text>
</a>
</g>
</g>
<!-- N12 -->
<g id="node12" class="node">
<title>N12</title>
<g id="a_node12"><a xlink:title="runtime.walltime (0.05s)">
<polygon fill="#edebe8" stroke="#b2a38c" points="396.5,-152 305.5,-152 305.5,-102 396.5,-102 396.5,-152"/>
<text text-anchor="middle" x="351" y="-137.6" font-family="Times,serif" font-size="13.00">runtime</text>
<text text-anchor="middle" x="351" y="-123.6" font-family="Times,serif" font-size="13.00">walltime</text>
<text text-anchor="middle" x="351" y="-109.6" font-family="Times,serif" font-size="13.00">0.05s (4.24%)</text>
</a>
</g>
</g>
<!-- N13&#45;&gt;N4 -->
<g id="edge6" class="edge">
<title>N13&#45;&gt;N4</title>
<g id="a_edge6"><a xlink:title="runtime.runtimer &#45;&gt; runtime.runOneTimer (0.89s)">
<path fill="none" stroke="#b20e00" stroke-width="4" d="M467,-697.76C467,-683.84 467,-666.55 467,-652.31"/>
<polygon fill="#b20e00" stroke="#b20e00" stroke-width="4" points="470.5,-652.13 467,-642.13 463.5,-652.13 470.5,-652.13"/>
</a>
</g>
<g id="a_edge6&#45;label"><a xlink:title="runtime.runtimer &#45;&gt; runtime.runOneTimer (0.89s)">
<text text-anchor="middle" x="484" y="-663.8" font-family="Times,serif" font-size="14.00"> 0.89s</text>
</a>
</g>
</g>
<!-- N14 -->
<g id="node14" class="node">
<title>N14</title>
<g id="a_node14"><a xlink:title="time.now (0.07s)">
<polygon fill="#edeae6" stroke="#b29b7d" points="389.5,-281 312.5,-281 312.5,-245 389.5,-245 389.5,-281"/>
<text text-anchor="middle" x="351" y="-270.1" font-family="Times,serif" font-size="8.00">time</text>
<text text-anchor="middle" x="351" y="-261.1" font-family="Times,serif" font-size="8.00">now</text>
<text text-anchor="middle" x="351" y="-252.1" font-family="Times,serif" font-size="8.00">0 of 0.07s (5.93%)</text>
</a>
</g>
</g>
<!-- N14&#45;&gt;N7 -->
<g id="edge22" class="edge">
<title>N14&#45;&gt;N7</title>
<g id="a_edge22"><a xlink:title="time.now &#45;&gt; runtime.nanotime (0.02s)">
<path fill="none" stroke="#b2aea3" d="M371.45,-244.96C379.76,-238.38 389.6,-231.01 399,-225 438.89,-199.51 486.22,-174.89 523.16,-156.84"/>
<polygon fill="#b2aea3" stroke="#b2aea3" points="524.85,-159.91 532.31,-152.39 521.79,-153.61 524.85,-159.91"/>
</a>
</g>
<g id="a_edge22&#45;label"><a xlink:title="time.now &#45;&gt; runtime.nanotime (0.02s)">
<text text-anchor="middle" x="500" y="-195.8" font-family="Times,serif" font-size="14.00"> 0.02s</text>
<text text-anchor="middle" x="500" y="-180.8" font-family="Times,serif" font-size="14.00"> (inline)</text>
</a>
</g>
</g>
<!-- N14&#45;&gt;N12 -->
<g id="edge15" class="edge">
<title>N14&#45;&gt;N12</title>
<g id="a_edge15"><a xlink:title="time.now &#45;&gt; runtime.walltime (0.05s)">
<path fill="none" stroke="#b2a38c" d="M351,-244.76C351,-224.13 351,-189.09 351,-162.77"/>
<polygon fill="#b2a38c" stroke="#b2a38c" points="354.5,-162.44 351,-152.44 347.5,-162.44 354.5,-162.44"/>
</a>
</g>
<g id="a_edge15&#45;label"><a xlink:title="time.now &#45;&gt; runtime.walltime (0.05s)">
<text text-anchor="middle" x="373" y="-195.8" font-family="Times,serif" font-size="14.00"> 0.05s</text>
<text text-anchor="middle" x="373" y="-180.8" font-family="Times,serif" font-size="14.00"> (inline)</text>
</a>
</g>
</g>
<!-- N15 -->
<g id="node15" class="node">
<title>N15</title>
<g id="a_node15"><a xlink:title="runtime.unlock2 (0.03s)">
<polygon fill="#edecea" stroke="#b2aa9b" points="490.5,-286.5 407.5,-286.5 407.5,-239.5 490.5,-239.5 490.5,-286.5"/>
<text text-anchor="middle" x="449" y="-272.9" font-family="Times,serif" font-size="12.00">runtime</text>
<text text-anchor="middle" x="449" y="-259.9" font-family="Times,serif" font-size="12.00">unlock2</text>
<text text-anchor="middle" x="449" y="-246.9" font-family="Times,serif" font-size="12.00">0.03s (2.54%)</text>
</a>
</g>
</g>
<!-- N20 -->
<g id="node20" class="node">
<title>N20</title>
<g id="a_node20"><a xlink:title="runtime.lockWithRank (0.01s)">
<polygon fill="#edecec" stroke="#b2b0aa" points="998.5,-744.5 921.5,-744.5 921.5,-703.5 998.5,-703.5 998.5,-744.5"/>
<text text-anchor="middle" x="960" y="-732.5" font-family="Times,serif" font-size="10.00">runtime</text>
<text text-anchor="middle" x="960" y="-721.5" font-family="Times,serif" font-size="10.00">lockWithRank</text>
<text text-anchor="middle" x="960" y="-710.5" font-family="Times,serif" font-size="10.00">0.01s (0.85%)</text>
</a>
</g>
</g>
<!-- N21&#45;&gt;N10 -->
<g id="edge24" class="edge">
<title>N21&#45;&gt;N10</title>
<g id="a_edge24"><a xlink:title="runtime.exitsyscall0 &#45;&gt; runtime.schedule (0.01s)">
<path fill="none" stroke="#b2b0aa" d="M306.68,-1140.9C325.91,-1130.8 351.08,-1118.07 374,-1108 388.9,-1101.46 405.45,-1094.98 420.41,-1089.42"/>
<polygon fill="#b2b0aa" stroke="#b2b0aa" points="421.79,-1092.63 429.97,-1085.9 419.38,-1086.06 421.79,-1092.63"/>
</a>
</g>
<g id="a_edge24&#45;label"><a xlink:title="runtime.exitsyscall0 &#45;&gt; runtime.schedule (0.01s)">
<text text-anchor="middle" x="391" y="-1111.8" font-family="Times,serif" font-size="14.00"> 0.01s</text>
</a>
</g>
</g>
<!-- N22&#45;&gt;N10 -->
<g id="edge28" class="edge">
<title>N22&#45;&gt;N10</title>
<g id="a_edge28"><a xlink:title="runtime.goexit0 &#45;&gt; runtime.schedule (0.01s)">
<path fill="none" stroke="#b2b0aa" d="M389.63,-1140.8C403.96,-1128.24 423.58,-1111.05 439.47,-1097.12"/>
<polygon fill="#b2b0aa" stroke="#b2b0aa" points="442.19,-1099.4 447.4,-1090.18 437.57,-1094.13 442.19,-1099.4"/>
</a>
</g>
<g id="a_edge28&#45;label"><a xlink:title="runtime.goexit0 &#45;&gt; runtime.schedule (0.01s)">
<text text-anchor="middle" x="441" y="-1111.8" font-family="Times,serif" font-size="14.00"> 0.01s</text>
</a>
</g>
</g>
<!-- N23&#45;&gt;N20 -->
<g id="edge29" class="edge">
<title>N23&#45;&gt;N20</title>
<g id="a_edge29"><a xlink:title="runtime.lock &#45;&gt; runtime.lockWithRank (0.01s)">
<path fill="none" stroke="#b2b0aa" d="M960,-830.9C960,-811.32 960,-778.89 960,-755.07"/>
<polygon fill="#b2b0aa" stroke="#b2b0aa" points="963.5,-754.8 960,-744.8 956.5,-754.8 963.5,-754.8"/>
</a>
</g>
<g id="a_edge29&#45;label"><a xlink:title="runtime.lock &#45;&gt; runtime.lockWithRank (0.01s)">
<text text-anchor="middle" x="982" y="-791.8" font-family="Times,serif" font-size="14.00"> 0.01s</text>
<text text-anchor="middle" x="982" y="-776.8" font-family="Times,serif" font-size="14.00"> (inline)</text>
</a>
</g>
</g>
<!-- N24&#45;&gt;N10 -->
<g id="edge3" class="edge">
<title>N24&#45;&gt;N10</title>
<g id="a_edge3"><a xlink:title="runtime.park_m &#45;&gt; runtime.schedule (1.16s)">
<path fill="none" stroke="#b20000" stroke-width="5" d="M467,-1140.8C467,-1129.16 467,-1113.55 467,-1100.24"/>
<polygon fill="#b20000" stroke="#b20000" stroke-width="5" points="471.38,-1100.18 467,-1090.18 462.63,-1100.18 471.38,-1100.18"/>
</a>
</g>
<g id="a_edge3&#45;label"><a xlink:title="runtime.park_m &#45;&gt; runtime.schedule (1.16s)">
<text text-anchor="middle" x="484" y="-1111.8" font-family="Times,serif" font-size="14.00"> 1.16s</text>
</a>
</g>
</g>
<!-- N25&#45;&gt;N9 -->
<g id="edge11" class="edge">
<title>N25&#45;&gt;N9</title>
<g id="a_edge11"><a xlink:title="runtime.selectnbsend &#45;&gt; runtime.chansend (0.13s)">
<path fill="none" stroke="#b27f50" d="M231,-351.66C231,-340.69 231,-325.94 231,-311.66"/>
<polygon fill="#b27f50" stroke="#b27f50" points="234.5,-311.41 231,-301.41 227.5,-311.41 234.5,-311.41"/>
</a>
</g>
<g id="a_edge11&#45;label"><a xlink:title="runtime.selectnbsend &#45;&gt; runtime.chansend (0.13s)">
<text text-anchor="middle" x="248" y="-322.8" font-family="Times,serif" font-size="14.00"> 0.13s</text>
</a>
</g>
</g>
<!-- N27 -->
<g id="node27" class="node">
<title>N27</title>
<g id="a_node27"><a xlink:title="runtime.unlockWithRank (0.03s)">
<polygon fill="#edecea" stroke="#b2aa9b" points="480.5,-388 403.5,-388 403.5,-352 480.5,-352 480.5,-388"/>
<text text-anchor="middle" x="442" y="-377.1" font-family="Times,serif" font-size="8.00">runtime</text>
<text text-anchor="middle" x="442" y="-368.1" font-family="Times,serif" font-size="8.00">unlockWithRank</text>
<text text-anchor="middle" x="442" y="-359.1" font-family="Times,serif" font-size="8.00">0 of 0.03s (2.54%)</text>
</a>
</g>
</g>
<!-- N26&#45;&gt;N27 -->
<g id="edge18" class="edge">
<title>N26&#45;&gt;N27</title>
<g id="a_edge18"><a xlink:title="runtime.unlock &#45;&gt; runtime.unlockWithRank (0.03s)">
<path fill="none" stroke="#b2aa9b" d="M343.61,-478.88C363.2,-457.4 396.94,-420.41 419.36,-395.82"/>
<polygon fill="#b2aa9b" stroke="#b2aa9b" points="422.06,-398.06 426.21,-388.31 416.89,-393.34 422.06,-398.06"/>
</a>
</g>
<g id="a_edge18&#45;label"><a xlink:title="runtime.unlock &#45;&gt; runtime.unlockWithRank (0.03s)">
<text text-anchor="middle" x="430" y="-424.8" font-family="Times,serif" font-size="14.00"> 0.03s</text>
<text text-anchor="middle" x="430" y="-409.8" font-family="Times,serif" font-size="14.00"> (inline)</text>
</a>
</g>
</g>
<!-- N27&#45;&gt;N15 -->
<g id="edge19" class="edge">
<title>N27&#45;&gt;N15</title>
<g id="a_edge19"><a xlink:title="runtime.unlockWithRank &#45;&gt; runtime.unlock2 (0.03s)">
<path fill="none" stroke="#b2aa9b" d="M443.16,-351.66C444.14,-336.86 445.59,-315.16 446.8,-297.05"/>
<polygon fill="#b2aa9b" stroke="#b2aa9b" points="450.3,-297.09 447.47,-286.88 443.32,-296.63 450.3,-297.09"/>
</a>
</g>
<g id="a_edge19&#45;label"><a xlink:title="runtime.unlockWithRank &#45;&gt; runtime.unlock2 (0.03s)">
<text text-anchor="middle" x="462" y="-322.8" font-family="Times,serif" font-size="14.00"> 0.03s</text>
</a>
</g>
</g>
<!-- N28&#45;&gt;N14 -->
<g id="edge13" class="edge">
<title>N28&#45;&gt;N14</title>
<g id="a_edge13"><a xlink:title="time.Now &#45;&gt; time.now (0.07s)">
<path fill="none" stroke="#b29b7d" d="M336.81,-351.66C339.48,-335.15 343.55,-310.05 346.64,-290.93"/>
<polygon fill="#b29b7d" stroke="#b29b7d" points="350.1,-291.45 348.25,-281.02 343.19,-290.33 350.1,-291.45"/>
</a>
</g>
<g id="a_edge13&#45;label"><a xlink:title="time.Now &#45;&gt; time.now (0.07s)">
<text text-anchor="middle" x="359" y="-322.8" font-family="Times,serif" font-size="14.00"> 0.07s</text>
</a>
</g>
</g>
</g>
</g></svg>
